<svg xmlns="http://www.w3.org/2000/svg" xmlns:xlink="http://www.w3.org/1999/xlink" xmlns:lucid="lucid" width="1060" height="776"><g transform="translate(-40 -108)" lucid:page-tab-id="0_0"><path d="M0 0h1760v1360H0z" fill="#fff"/><path d="M60 360h200v232H60z" fill="#fff"/><path d="M60 360h200v232H60zM60 400h200" stroke="#000" stroke-width="2" fill="none"/><use xlink:href="#a" transform="matrix(1,0,0,1,70,360) translate(71.05 23.6)"/><use xlink:href="#b" transform="matrix(1,0,0,1,65,402.5) translate(0 17.1)"/><use xlink:href="#c" transform="matrix(1,0,0,1,65,434.5) translate(0 17.1)"/><use xlink:href="#d" transform="matrix(1,0,0,1,65,466.5) translate(0 17.1)"/><use xlink:href="#e" transform="matrix(1,0,0,1,65,498.5) translate(0 17.1)"/><use xlink:href="#f" transform="matrix(1,0,0,1,65,530.5) translate(0 17.1)"/><use xlink:href="#g" transform="matrix(1,0,0,1,65,562.5) translate(0 17.1)"/><path d="M880 360h200v264H880z" fill="#fff"/><path d="M880 360h200v264H880zM880 400h200" stroke="#000" stroke-width="2" fill="none"/><use xlink:href="#h" transform="matrix(1,0,0,1,890,360) translate(72 23.6)"/><use xlink:href="#b" transform="matrix(1,0,0,1,885,402.5) translate(0 17.1)"/><use xlink:href="#i" transform="matrix(1,0,0,1,885,434.5) translate(0 17.1)"/><use xlink:href="#j" transform="matrix(1,0,0,1,885,466.5) translate(0 17.1)"/><use xlink:href="#k" transform="matrix(1,0,0,1,885,498.5) translate(0 17.1)"/><use xlink:href="#l" transform="matrix(1,0,0,1,885,498.5) translate(66.9 17.1)"/><use xlink:href="#m" transform="matrix(1,0,0,1,885,498.5) translate(82.4 17.1)"/><use xlink:href="#k" transform="matrix(1,0,0,1,885,530.5) translate(0 17.1)"/><use xlink:href="#l" transform="matrix(1,0,0,1,885,530.5) translate(66.9 17.1)"/><use xlink:href="#n" transform="matrix(1,0,0,1,885,530.5) translate(82.4 17.1)"/><use xlink:href="#f" transform="matrix(1,0,0,1,885,562.5) translate(0 17.1)"/><use xlink:href="#g" transform="matrix(1,0,0,1,885,594.5) translate(0 17.1)"/><path d="M460 600h200v264H460z" fill="#fff"/><path d="M460 600h200v264H460zM460 640h200" stroke="#000" stroke-width="2" fill="none"/><use xlink:href="#o" transform="matrix(1,0,0,1,470,600) translate(72 23.6)"/><use xlink:href="#b" transform="matrix(1,0,0,1,465,642.5) translate(0 17.1)"/><use xlink:href="#p" transform="matrix(1,0,0,1,465,674.5) translate(0 17.1)"/><use xlink:href="#q" transform="matrix(1,0,0,1,465,706.5) translate(0 17.1)"/><use xlink:href="#i" transform="matrix(1,0,0,1,465,738.5) translate(0 17.1)"/><use xlink:href="#r" transform="matrix(1,0,0,1,465,770.5) translate(0 17.1)"/><use xlink:href="#f" transform="matrix(1,0,0,1,465,802.5) translate(0 17.1)"/><use xlink:href="#g" transform="matrix(1,0,0,1,465,834.5) translate(0 17.1)"/><path d="M460 128h200v232H460z" fill="#fff"/><path d="M460 128h200v232H460zM460 168h200" stroke="#000" stroke-width="2" fill="none"/><use xlink:href="#s" transform="matrix(1,0,0,1,470,128) translate(51.074999999999996 23.6)"/><use xlink:href="#b" transform="matrix(1,0,0,1,465,170.5) translate(0 17.1)"/><use xlink:href="#t" transform="matrix(1,0,0,1,465,202.5) translate(0 17.1)"/><use xlink:href="#i" transform="matrix(1,0,0,1,465,234.5) translate(0 17.1)"/><use xlink:href="#j" transform="matrix(1,0,0,1,465,266.5) translate(0 17.1)"/><use xlink:href="#f" transform="matrix(1,0,0,1,465,298.5) translate(0 17.1)"/><use xlink:href="#g" transform="matrix(1,0,0,1,465,330.5) translate(0 17.1)"/><path d="M281 480.04h559" stroke="#000" stroke-width="2" fill="none"/><path fill="#fff"/><path d="M272 490.04h-2v-20h2z"/><path fill="#fff"/><path d="M281 481.04h-20v-2h20z"/><path fill="#fff"/><path d="M282 490.04h-2v-20h2z"/><path d="M878.55 490.04l-20-10 20-10z" fill="#fff"/><path d="M879 470.93l-18.2 9.1 18.2 9.12-.9 1.78-21.78-10.9 21.8-10.88z"/><path fill="#fff"/><path d="M878.55 481.04h-20v-2h20z"/><path d="M858.55 480.04l-.5 3.16-1.43 2.75-2.16 2.16-2.75 1.43-3.15.5-3.16-.5-2.75-1.42-2.17-2.15-1.42-2.75-.5-3.16.5-3.16 1.42-2.75 2.17-2.16 2.74-1.42 3.15-.5 3.16.5 2.76 1.42 2.16 2.16 1.42 2.75.5 3.16z" fill="#fff"/><path d="M852.03 469.6l3.03 1.55 2.38 2.4 1.56 3 .54 3.33-1 .16 1 .16-.54 3.32-1.56 3.02-2.38 2.4-3.03 1.55-3.48.55-3.48-.56-3.02-1.57-2.38-2.4-1.57-3-.56-3.5.56-3.47 1.57-3.02 2.38-2.4 3.02-1.55 3.48-.57zm-6.32 1.9l-2.46 1.3-1.94 1.93-1.28 2.47-.45 2.84.45 2.84 1.28 2.47 1.94 1.94 2.47 1.27 2.85.46 2.85-.46 2.46-1.28 1.95-1.95 1.28-2.47.46-2.84-.46-2.84-1.27-2.47-1.94-1.94-2.46-1.3-2.85-.45z"/><path d="M980 339V183.4H700" stroke="#000" stroke-width="2" fill="none"/><path fill="#fff"/><path d="M990 350h-20v-2h20z"/><path fill="#fff"/><path d="M981 359h-2v-20h2z"/><path fill="#fff"/><path d="M990 340h-20v-2h20z"/><path d="M661.45 173.4l20 10-20 10z" fill="#fff"/><path d="M683.68 183.4l-21.8 10.9-.88-1.8 18.2-9.1-18.2-9.1.9-1.8z"/><path fill="#fff"/><path d="M681.45 184.4h-20v-2h20z"/><path d="M701.45 183.4l-.5 3.16-1.43 2.75-2.17 2.17-2.74 1.42-3.15.5-3.16-.5-2.76-1.43-2.16-2.16-1.42-2.74-.5-3.16.5-3.16 1.42-2.75 2.16-2.17 2.75-1.42 3.15-.5 3.16.5 2.75 1.43 2.17 2.16 1.42 2.74.5 3.16z" fill="#fff"/><path d="M694.93 172.95l3.02 1.56 2.38 2.4 1.57 3.02.53 3.32-.98.16.98.16-.53 3.32-1.57 3.02-2.38 2.4-3.02 1.55-3.48.56-3.48-.55-3.03-1.56-2.38-2.4-1.56-3.02-.57-3.48.57-3.48 1.56-3.02 2.38-2.4 3.03-1.55 3.48-.56zm-6.33 1.92l-2.46 1.28-1.95 1.94-1.28 2.46-.46 2.84.46 2.84 1.27 2.47 1.94 1.95 2.46 1.28 2.85.46 2.84-.47 2.46-1.28 1.94-1.94 1.28-2.46.45-2.84-.45-2.84-1.28-2.47-1.94-1.95-2.47-1.28-2.85-.46z"/><path d="M980 664v152.84H700" stroke="#000" stroke-width="2" fill="none"/><path fill="#fff"/><path d="M990 636h-20v-2h20z"/><path fill="#fff"/><path d="M981 645h-2v-20h2z"/><path d="M990 655l-.5 3.16-1.43 2.75-2.16 2.17-2.74 1.42-3.16.5-3.16-.5-2.75-1.43-2.17-2.16-1.42-2.74-.5-3.16.5-3.16 1.43-2.75 2.16-2.17 2.74-1.42 3.16-.5 3.16.5 2.75 1.43 2.17 2.16 1.42 2.74.5 3.16z" fill="#fff"/><path d="M983.48 644.55l3.02 1.56 2.4 2.4 1.55 3.02.54 3.32-1 .16 1 .16-.55 3.32-1.56 3.02-2.4 2.4-3.02 1.55-3.48.56-3.48-.55-3.02-1.56-2.4-2.4-1.55-3.02L969 655l.55-3.48 1.56-3.02 2.4-2.4 3.02-1.55L980 644zm-6.32 1.92l-2.47 1.28-1.95 1.94-1.28 2.46L971 655l.47 2.84 1.28 2.47 1.94 1.95 2.46 1.28 2.84.46 2.84-.47 2.47-1.28 1.95-1.94 1.28-2.46.46-2.84-.47-2.84-1.28-2.47-1.94-1.95-2.46-1.28L980 646z"/><path d="M661.45 806.84l20 10-20 10z" fill="#fff"/><path d="M683.68 816.84l-21.8 10.9-.88-1.8 18.2-9.1-18.2-9.1.9-1.8z"/><path fill="#fff"/><path d="M681.45 817.84h-20v-2h20z"/><path d="M701.45 816.84l-.5 3.16-1.43 2.75-2.17 2.16-2.74 1.43-3.15.5-3.16-.5-2.76-1.42-2.16-2.15-1.42-2.75-.5-3.16.5-3.16 1.42-2.75 2.16-2.16 2.75-1.42 3.15-.5 3.16.5 2.75 1.42 2.17 2.16 1.42 2.75.5 3.16z" fill="#fff"/><path d="M694.93 806.4l3.02 1.55 2.38 2.4 1.57 3 .53 3.33-.98.16.98.16-.53 3.32-1.57 3.02-2.38 2.4-3.02 1.55-3.48.55-3.48-.56-3.03-1.57-2.38-2.4-1.56-3-.57-3.5.57-3.47 1.56-3.02 2.38-2.4 3.03-1.55 3.48-.57zm-6.33 1.9l-2.46 1.3-1.95 1.93-1.28 2.47-.46 2.84.46 2.84 1.27 2.47 1.94 1.94 2.46 1.27 2.85.46 2.84-.46 2.46-1.28 1.94-1.95 1.28-2.47.45-2.84-.45-2.84-1.28-2.47-1.94-1.94-2.47-1.3-2.85-.45z"/><path d="M160 339V183.4h260" stroke="#000" stroke-width="2" fill="none"/><path fill="#fff"/><path d="M170 350h-20v-2h20z"/><path fill="#fff"/><path d="M161 359h-2v-20h2z"/><path fill="#fff"/><path d="M170 340h-20v-2h20z"/><path d="M458.55 193.4l-20-10 20-10z" fill="#fff"/><path d="M459 174.3l-18.2 9.1 18.2 9.1-.9 1.8-21.78-10.9 21.8-10.9z"/><path fill="#fff"/><path d="M458.55 184.4h-20v-2h20z"/><path d="M438.55 183.4l-.5 3.16-1.43 2.75-2.16 2.17-2.75 1.42-3.15.5-3.16-.5-2.75-1.43-2.17-2.16-1.42-2.74-.5-3.16.5-3.16 1.42-2.75 2.17-2.17 2.74-1.42 3.15-.5 3.16.5 2.76 1.43 2.16 2.16 1.42 2.74.5 3.16z" fill="#fff"/><path d="M432.03 172.95l3.03 1.56 2.38 2.4 1.56 3.02.54 3.32-1 .16 1 .16-.54 3.32-1.56 3.02-2.38 2.4-3.03 1.55-3.48.56-3.48-.55-3.02-1.56-2.38-2.4-1.57-3.02-.56-3.48.56-3.48 1.57-3.02 2.38-2.4 3.02-1.55 3.48-.56zm-6.32 1.92l-2.46 1.28-1.94 1.94-1.28 2.46-.45 2.84.45 2.84 1.28 2.47 1.94 1.95 2.47 1.28 2.85.46 2.85-.47 2.46-1.28 1.95-1.94 1.28-2.46.46-2.84-.46-2.84-1.27-2.47-1.94-1.95-2.46-1.28-2.85-.46z"/><path d="M160 613v203.84h260" stroke="#000" stroke-width="2" fill="none"/><path fill="#fff"/><path d="M170 604h-20v-2h20z"/><path fill="#fff"/><path d="M161 613h-2v-20h2z"/><path fill="#fff"/><path d="M170 614h-20v-2h20z"/><path d="M458.55 826.84l-20-10 20-10z" fill="#fff"/><path d="M459 807.73l-18.2 9.1 18.2 9.12-.9 1.78-21.78-10.9 21.8-10.88z"/><path fill="#fff"/><path d="M458.55 817.84h-20v-2h20z"/><path d="M438.55 816.84l-.5 3.16-1.43 2.75-2.16 2.16-2.75 1.43-3.15.5-3.16-.5-2.75-1.42-2.17-2.15-1.42-2.75-.5-3.16.5-3.16 1.42-2.75 2.17-2.16 2.74-1.42 3.15-.5 3.16.5 2.76 1.42 2.16 2.16 1.42 2.75.5 3.16z" fill="#fff"/><path d="M432.03 806.4l3.03 1.55 2.38 2.4 1.56 3 .54 3.33-1 .16 1 .16-.54 3.32-1.56 3.02-2.38 2.4-3.03 1.55-3.48.55-3.48-.56-3.02-1.57-2.38-2.4-1.57-3-.56-3.5.56-3.47 1.57-3.02 2.38-2.4 3.02-1.55 3.48-.57zm-6.32 1.9l-2.46 1.3-1.94 1.93-1.28 2.47-.45 2.84.45 2.84 1.28 2.47 1.94 1.94 2.47 1.27 2.85.46 2.85-.46 2.46-1.28 1.95-1.95 1.28-2.47.46-2.84-.46-2.84-1.27-2.47-1.94-1.94-2.46-1.3-2.85-.45z"/><path d="M560 400v75.04c2.76 0 5 2.24 5 5s-2.24 5-5 5V560" stroke="#000" stroke-width="2" fill="none"/><path fill="#fff"/><path d="M570 372h-20v-2h20z"/><path fill="#fff"/><path d="M561 381h-2v-20h2z"/><path d="M570 391l-.5 3.16-1.43 2.75-2.16 2.17-2.74 1.42-3.16.5-3.16-.5-2.75-1.43-2.17-2.16-1.42-2.74-.5-3.16.5-3.16 1.43-2.75 2.16-2.17 2.74-1.42 3.16-.5 3.16.5 2.75 1.43 2.17 2.16 1.42 2.74.5 3.16z" fill="#fff"/><path d="M563.48 380.55l3.02 1.56 2.4 2.4 1.55 3.02.54 3.32-1 .16 1 .16-.55 3.32-1.56 3.02-2.4 2.4-3.02 1.55-3.48.56-3.48-.55-3.02-1.56-2.4-2.4-1.55-3.02L549 391l.55-3.48 1.56-3.02 2.4-2.4 3.02-1.55L560 380zm-6.32 1.92l-2.47 1.28-1.95 1.94-1.28 2.46L551 391l.47 2.84 1.28 2.47 1.94 1.95 2.46 1.28 2.84.46 2.84-.47 2.47-1.28 1.95-1.94 1.28-2.46.46-2.84-.47-2.84-1.28-2.47-1.94-1.95-2.46-1.28L560 382z"/><path d="M550 598.55l10-20 10 20z" fill="#fff"/><path d="M570.9 598.1l-1.8.9-9.1-18.2-9.1 18.2-1.8-.9 10.9-21.78z"/><path fill="#fff"/><path d="M561 598.55h-2v-20h2z"/><path d="M570 568.55l-.5 3.16-1.43 2.76-2.16 2.16-2.74 1.42-3.16.5-3.16-.5-2.75-1.42-2.17-2.16-1.42-2.75-.5-3.15.5-3.16 1.43-2.75 2.16-2.17 2.74-1.42 3.16-.5 3.16.5 2.75 1.42 2.17 2.17 1.42 2.74.5 3.15z" fill="#fff"/><path d="M563.48 558.1l3.02 1.57 2.4 2.38 1.55 3.02.54 3.32-1 .15 1 .16-.55 3.33-1.56 3.03-2.4 2.38-3.02 1.56-3.48.57-3.48-.57-3.02-1.56-2.4-2.38-1.55-3.03-.56-3.48.55-3.48 1.56-3.02 2.4-2.38 3.02-1.57 3.48-.56zm-6.32 1.92l-2.47 1.28-1.95 1.94-1.28 2.47-.46 2.85.47 2.85 1.28 2.46 1.94 1.95 2.46 1.28 2.84.46 2.84-.46 2.47-1.27 1.95-1.94 1.28-2.46.46-2.85-.47-2.84-1.28-2.46-1.94-1.94-2.46-1.28-2.84-.45z"/><defs><path d="M232-93c-1 65-40 97-104 97C67 4 28-28 28-90v-158h33c8 89-33 224 67 224 102 0 64-133 71-224h33v155" id="u"/><path d="M135-143c-3-34-86-38-87 0 15 53 115 12 119 90S17 21 10-45l28-5c4 36 97 45 98 0-10-56-113-15-118-90-4-57 82-63 122-42 12 7 21 19 24 35" id="v"/><path d="M100-194c63 0 86 42 84 106H49c0 40 14 67 53 68 26 1 43-12 49-29l28 8c-11 28-37 45-77 45C44 4 14-33 15-96c1-61 26-98 85-98zm52 81c6-60-76-77-97-28-3 7-6 17-6 28h103" id="w"/><path d="M114-163C36-179 61-72 57 0H25l-1-190h30c1 12-1 29 2 39 6-27 23-49 58-41v29" id="x"/><g id="a"><use transform="matrix(0.05,0,0,0.05,0,0)" xlink:href="#u"/><use transform="matrix(0.05,0,0,0.05,12.950000000000001,0)" xlink:href="#v"/><use transform="matrix(0.05,0,0,0.05,21.950000000000003,0)" xlink:href="#w"/><use transform="matrix(0.05,0,0,0.05,31.950000000000003,0)" xlink:href="#x"/></g><path d="M-5 72V49h209v23H-5" id="y"/><path d="M24-231v-30h32v30H24zM24 0v-190h32V0H24" id="z"/><path d="M85-194c31 0 48 13 60 33l-1-100h32l1 261h-30c-2-10 0-23-3-31C134-8 116 4 85 4 32 4 16-35 15-94c0-66 23-100 70-100zm9 24c-40 0-46 34-46 75 0 40 6 74 45 74 42 0 51-32 51-76 0-42-9-74-50-73" id="A"/><g id="b"><use transform="matrix(0.05,0,0,0.05,0,0)" xlink:href="#y"/><use transform="matrix(0.05,0,0,0.05,10,0)" xlink:href="#z"/><use transform="matrix(0.05,0,0,0.05,13.949999999999998,0)" xlink:href="#A"/></g><path d="M101-234c-31-9-42 10-38 44h38v23H63V0H32v-167H5v-23h27c-7-52 17-82 69-68v24" id="B"/><path d="M115-194c53 0 69 39 70 98 0 66-23 100-70 100C84 3 66-7 56-30L54 0H23l1-261h32v101c10-23 28-34 59-34zm-8 174c40 0 45-34 45-75 0-40-5-75-45-74-42 0-51 32-51 76 0 43 10 73 51 73" id="C"/><path d="M141-36C126-15 110 5 73 4 37 3 15-17 15-53c-1-64 63-63 125-63 3-35-9-54-41-54-24 1-41 7-42 31l-33-3c5-37 33-52 76-52 45 0 72 20 72 64v82c-1 20 7 32 28 27v20c-31 9-61-2-59-35zM48-53c0 20 12 33 32 33 41-3 63-29 60-74-43 2-92-5-92 41" id="D"/><g id="c"><use transform="matrix(0.05,0,0,0.05,0,0)" xlink:href="#B"/><use transform="matrix(0.05,0,0,0.05,5,0)" xlink:href="#z"/><use transform="matrix(0.05,0,0,0.05,8.95,0)" xlink:href="#x"/><use transform="matrix(0.05,0,0,0.05,14.899999999999999,0)" xlink:href="#w"/><use transform="matrix(0.05,0,0,0.05,24.9,0)" xlink:href="#C"/><use transform="matrix(0.05,0,0,0.05,34.9,0)" xlink:href="#D"/><use transform="matrix(0.05,0,0,0.05,44.9,0)" xlink:href="#v"/><use transform="matrix(0.05,0,0,0.05,53.900000000000006,0)" xlink:href="#w"/><use transform="matrix(0.05,0,0,0.05,63.900000000000006,0)" xlink:href="#y"/><use transform="matrix(0.05,0,0,0.05,73.9,0)" xlink:href="#z"/><use transform="matrix(0.05,0,0,0.05,77.85000000000001,0)" xlink:href="#A"/></g><path d="M210-169c-67 3-38 105-44 169h-31v-121c0-29-5-50-35-48C34-165 62-65 56 0H25l-1-190h30c1 10-1 24 2 32 10-44 99-50 107 0 11-21 27-35 58-36 85-2 47 119 55 194h-31v-121c0-29-5-49-35-48" id="E"/><path d="M24 0v-261h32V0H24" id="F"/><g id="d"><use transform="matrix(0.05,0,0,0.05,0,0)" xlink:href="#w"/><use transform="matrix(0.05,0,0,0.05,10,0)" xlink:href="#E"/><use transform="matrix(0.05,0,0,0.05,24.950000000000003,0)" xlink:href="#D"/><use transform="matrix(0.05,0,0,0.05,34.95,0)" xlink:href="#z"/><use transform="matrix(0.05,0,0,0.05,38.900000000000006,0)" xlink:href="#F"/></g><path d="M108 0H70L1-190h34L89-25l56-165h34" id="G"/><path d="M59-47c-2 24 18 29 38 22v24C64 9 27 4 27-40v-127H5v-23h24l9-43h21v43h35v23H59v120" id="H"/><g id="e"><use transform="matrix(0.05,0,0,0.05,0,0)" xlink:href="#D"/><use transform="matrix(0.05,0,0,0.05,10,0)" xlink:href="#G"/><use transform="matrix(0.05,0,0,0.05,19,0)" xlink:href="#D"/><use transform="matrix(0.05,0,0,0.05,29,0)" xlink:href="#H"/><use transform="matrix(0.05,0,0,0.05,34,0)" xlink:href="#D"/><use transform="matrix(0.05,0,0,0.05,44,0)" xlink:href="#x"/></g><path d="M96-169c-40 0-48 33-48 73s9 75 48 75c24 0 41-14 43-38l32 2c-6 37-31 61-74 61-59 0-76-41-82-99-10-93 101-131 147-64 4 7 5 14 7 22l-32 3c-4-21-16-35-41-35" id="I"/><g id="f"><use transform="matrix(0.05,0,0,0.05,0,0)" xlink:href="#I"/><use transform="matrix(0.05,0,0,0.05,9,0)" xlink:href="#x"/><use transform="matrix(0.05,0,0,0.05,14.949999999999998,0)" xlink:href="#w"/><use transform="matrix(0.05,0,0,0.05,24.95,0)" xlink:href="#D"/><use transform="matrix(0.05,0,0,0.05,34.95,0)" xlink:href="#H"/><use transform="matrix(0.05,0,0,0.05,39.95,0)" xlink:href="#w"/><use transform="matrix(0.05,0,0,0.05,49.95,0)" xlink:href="#A"/><use transform="matrix(0.05,0,0,0.05,59.95,0)" xlink:href="#y"/><use transform="matrix(0.05,0,0,0.05,69.95,0)" xlink:href="#D"/><use transform="matrix(0.05,0,0,0.05,79.95,0)" xlink:href="#H"/></g><path d="M84 4C-5 8 30-112 23-190h32v120c0 31 7 50 39 49 72-2 45-101 50-169h31l1 190h-30c-1-10 1-25-2-33-11 22-28 36-60 37" id="J"/><path d="M115-194c55 1 70 41 70 98S169 2 115 4C84 4 66-9 55-30l1 105H24l-1-265h31l2 30c10-21 28-34 59-34zm-8 174c40 0 45-34 45-75s-6-73-45-74c-42 0-51 32-51 76 0 43 10 73 51 73" id="K"/><g id="g"><use transform="matrix(0.05,0,0,0.05,0,0)" xlink:href="#J"/><use transform="matrix(0.05,0,0,0.05,10,0)" xlink:href="#K"/><use transform="matrix(0.05,0,0,0.05,20,0)" xlink:href="#A"/><use transform="matrix(0.05,0,0,0.05,30,0)" xlink:href="#D"/><use transform="matrix(0.05,0,0,0.05,40,0)" xlink:href="#H"/><use transform="matrix(0.05,0,0,0.05,45,0)" xlink:href="#w"/><use transform="matrix(0.05,0,0,0.05,55,0)" xlink:href="#A"/><use transform="matrix(0.05,0,0,0.05,65,0)" xlink:href="#y"/><use transform="matrix(0.05,0,0,0.05,75,0)" xlink:href="#D"/><use transform="matrix(0.05,0,0,0.05,85,0)" xlink:href="#H"/></g><path d="M30-248c87 1 191-15 191 75 0 78-77 80-158 76V0H30v-248zm33 125c57 0 124 11 124-50 0-59-68-47-124-48v98" id="L"/><path d="M100-194c62-1 85 37 85 99 1 63-27 99-86 99S16-35 15-95c0-66 28-99 85-99zM99-20c44 1 53-31 53-75 0-43-8-75-51-75s-53 32-53 75 10 74 51 75" id="M"/><g id="h"><use transform="matrix(0.05,0,0,0.05,0,0)" xlink:href="#L"/><use transform="matrix(0.05,0,0,0.05,12,0)" xlink:href="#M"/><use transform="matrix(0.05,0,0,0.05,22,0)" xlink:href="#v"/><use transform="matrix(0.05,0,0,0.05,31,0)" xlink:href="#H"/></g><g id="i"><use transform="matrix(0.05,0,0,0.05,0,0)" xlink:href="#J"/><use transform="matrix(0.05,0,0,0.05,10,0)" xlink:href="#v"/><use transform="matrix(0.05,0,0,0.05,19,0)" xlink:href="#w"/><use transform="matrix(0.05,0,0,0.05,29,0)" xlink:href="#x"/><use transform="matrix(0.05,0,0,0.05,34.95,0)" xlink:href="#y"/><use transform="matrix(0.05,0,0,0.05,44.95,0)" xlink:href="#z"/><use transform="matrix(0.05,0,0,0.05,48.900000000000006,0)" xlink:href="#A"/></g><path d="M179-190L93 31C79 59 56 82 12 73V49c39 6 53-20 64-50L1-190h34L92-34l54-156h33" id="N"/><g id="j"><use transform="matrix(0.05,0,0,0.05,0,0)" xlink:href="#C"/><use transform="matrix(0.05,0,0,0.05,10,0)" xlink:href="#M"/><use transform="matrix(0.05,0,0,0.05,20,0)" xlink:href="#A"/><use transform="matrix(0.05,0,0,0.05,30,0)" xlink:href="#N"/></g><path d="M117-194c89-4 53 116 60 194h-32v-121c0-31-8-49-39-48C34-167 62-67 57 0H25l-1-190h30c1 10-1 24 2 32 11-22 29-35 61-36" id="O"/><g id="k"><use transform="matrix(0.05,0,0,0.05,0,0)" xlink:href="#F"/><use transform="matrix(0.05,0,0,0.05,3.95,0)" xlink:href="#M"/><use transform="matrix(0.05,0,0,0.05,13.949999999999998,0)" xlink:href="#I"/><use transform="matrix(0.05,0,0,0.05,22.95,0)" xlink:href="#D"/><use transform="matrix(0.05,0,0,0.05,32.95,0)" xlink:href="#H"/><use transform="matrix(0.05,0,0,0.05,37.95,0)" xlink:href="#z"/><use transform="matrix(0.05,0,0,0.05,41.900000000000006,0)" xlink:href="#M"/><use transform="matrix(0.05,0,0,0.05,51.900000000000006,0)" xlink:href="#O"/></g><path d="M18-27v-27l151-64-151-65v-27l175 74v36" id="P"/><use transform="matrix(0.05,0,0,0.05,0,0)" xlink:href="#P" id="l"/><g id="m"><use transform="matrix(0.05,0,0,0.05,0,0)" xlink:href="#F"/><use transform="matrix(0.05,0,0,0.05,3.95,0)" xlink:href="#D"/><use transform="matrix(0.05,0,0,0.05,13.949999999999998,0)" xlink:href="#H"/></g><g id="n"><use transform="matrix(0.05,0,0,0.05,0,0)" xlink:href="#F"/><use transform="matrix(0.05,0,0,0.05,3.95,0)" xlink:href="#M"/><use transform="matrix(0.05,0,0,0.05,13.949999999999998,0)" xlink:href="#O"/></g><path d="M137 0h-34L2-248h35l83 218 83-218h36" id="Q"/><g id="o"><use transform="matrix(0.05,0,0,0.05,0,0)" xlink:href="#Q"/><use transform="matrix(0.05,0,0,0.05,11,0)" xlink:href="#M"/><use transform="matrix(0.05,0,0,0.05,21,0)" xlink:href="#H"/><use transform="matrix(0.05,0,0,0.05,26,0)" xlink:href="#w"/></g><g id="p"><use transform="matrix(0.05,0,0,0.05,0,0)" xlink:href="#G"/><use transform="matrix(0.05,0,0,0.05,9,0)" xlink:href="#M"/><use transform="matrix(0.05,0,0,0.05,19,0)" xlink:href="#H"/><use transform="matrix(0.05,0,0,0.05,24,0)" xlink:href="#w"/><use transform="matrix(0.05,0,0,0.05,34,0)" xlink:href="#y"/><use transform="matrix(0.05,0,0,0.05,44,0)" xlink:href="#H"/><use transform="matrix(0.05,0,0,0.05,49,0)" xlink:href="#N"/><use transform="matrix(0.05,0,0,0.05,58,0)" xlink:href="#K"/><use transform="matrix(0.05,0,0,0.05,68,0)" xlink:href="#w"/></g><path d="M177-190C167-65 218 103 67 71c-23-6-38-20-44-43l32-5c15 47 100 32 89-28v-30C133-14 115 1 83 1 29 1 15-40 15-95c0-56 16-97 71-98 29-1 48 16 59 35 1-10 0-23 2-32h30zM94-22c36 0 50-32 50-73 0-42-14-75-50-75-39 0-46 34-46 75s6 73 46 73" id="R"/><g id="q"><use transform="matrix(0.05,0,0,0.05,0,0)" xlink:href="#H"/><use transform="matrix(0.05,0,0,0.05,5,0)" xlink:href="#D"/><use transform="matrix(0.05,0,0,0.05,15,0)" xlink:href="#x"/><use transform="matrix(0.05,0,0,0.05,20.95,0)" xlink:href="#R"/><use transform="matrix(0.05,0,0,0.05,30.950000000000003,0)" xlink:href="#w"/><use transform="matrix(0.05,0,0,0.05,40.95,0)" xlink:href="#H"/><use transform="matrix(0.05,0,0,0.05,45.95,0)" xlink:href="#y"/><use transform="matrix(0.05,0,0,0.05,55.95,0)" xlink:href="#z"/><use transform="matrix(0.05,0,0,0.05,59.900000000000006,0)" xlink:href="#A"/></g><g id="r"><use transform="matrix(0.05,0,0,0.05,0,0)" xlink:href="#G"/><use transform="matrix(0.05,0,0,0.05,9,0)" xlink:href="#M"/><use transform="matrix(0.05,0,0,0.05,19,0)" xlink:href="#H"/><use transform="matrix(0.05,0,0,0.05,24,0)" xlink:href="#w"/></g><path d="M212-179c-10-28-35-45-73-45-59 0-87 40-87 99 0 60 29 101 89 101 43 0 62-24 78-52l27 14C228-24 195 4 139 4 59 4 22-46 18-125c-6-104 99-153 187-111 19 9 31 26 39 46" id="S"/><g id="s"><use transform="matrix(0.05,0,0,0.05,0,0)" xlink:href="#S"/><use transform="matrix(0.05,0,0,0.05,12.950000000000001,0)" xlink:href="#M"/><use transform="matrix(0.05,0,0,0.05,22.950000000000003,0)" xlink:href="#E"/><use transform="matrix(0.05,0,0,0.05,37.900000000000006,0)" xlink:href="#E"/><use transform="matrix(0.05,0,0,0.05,52.85,0)" xlink:href="#w"/><use transform="matrix(0.05,0,0,0.05,62.85,0)" xlink:href="#O"/><use transform="matrix(0.05,0,0,0.05,72.85000000000001,0)" xlink:href="#H"/></g><g id="t"><use transform="matrix(0.05,0,0,0.05,0,0)" xlink:href="#K"/><use transform="matrix(0.05,0,0,0.05,10,0)" xlink:href="#M"/><use transform="matrix(0.05,0,0,0.05,20,0)" xlink:href="#v"/><use transform="matrix(0.05,0,0,0.05,29,0)" xlink:href="#H"/><use transform="matrix(0.05,0,0,0.05,34,0)" xlink:href="#y"/><use transform="matrix(0.05,0,0,0.05,44,0)" xlink:href="#z"/><use transform="matrix(0.05,0,0,0.05,47.95,0)" xlink:href="#A"/></g></defs></g></svg>